<svg width="18" height="18" viewBox="0 0 18 18" fill="none" xmlns="http://www.w3.org/2000/svg">
<path d="M10.9375 1.87842H4.37502C3.98825 1.87842 3.61731 2.03206 3.34382 2.30555C3.07033 2.57904 2.91669 2.94998 2.91669 3.33675V15.0034C2.91669 15.3902 3.07033 15.7611 3.34382 16.0346C3.61731 16.3081 3.98825 16.4618 4.37502 16.4618H13.125C13.5118 16.4618 13.8827 16.3081 14.1562 16.0346C14.4297 15.7611 14.5834 15.3902 14.5834 15.0034V5.52425L10.9375 1.87842Z" stroke="#E91E63" stroke-width="1.45833" stroke-linecap="round" stroke-linejoin="round"/>
<path d="M10.2083 1.87842V4.79508C10.2083 5.18186 10.362 5.55279 10.6354 5.82628C10.9089 6.09977 11.2799 6.25342 11.6666 6.25342H14.5833" stroke="#E91E63" stroke-width="1.45833" stroke-linecap="round" stroke-linejoin="round"/>
<path d="M7.29165 6.98254H5.83331" stroke="#E91E63" stroke-width="1.45833" stroke-linecap="round" stroke-linejoin="round"/>
<path d="M11.6666 9.89917H5.83331" stroke="#E91E63" stroke-width="1.45833" stroke-linecap="round" stroke-linejoin="round"/>
<path d="M11.6666 12.8159H5.83331" stroke="#E91E63" stroke-width="1.45833" stroke-linecap="round" stroke-linejoin="round"/>
</svg>
